<?xml version="1.0" encoding="utf-8"?>
<!-- Generator: Adobe Illustrator 16.0.0, SVG Export Plug-In . SVG Version: 6.00 Build 0)  -->
<!DOCTYPE svg PUBLIC "-//W3C//DTD SVG 1.1//EN" "http://www.w3.org/Graphics/SVG/1.1/DTD/svg11.dtd">
<svg version="1.1" id="Camada_1" xmlns="http://www.w3.org/2000/svg" xmlns:xlink="http://www.w3.org/1999/xlink" x="0px" y="0px"
	 width="150px" height="150px" viewBox="0 0 150 150" enable-background="new 0 0 150 150" xml:space="preserve">
<rect fill="#797979" width="150" height="150"/>
<polygon opacity="0.1" points="50,98.056 150.656,198.514 198.887,197.689 204.95,151.5 76.445,50.837 50,49.443 "/>
<g>
	<g>
		<path fill="#FFFFFF" d="M50.472,68.862c-0.844,0-1.351-0.684-1.351-1.527V50.837c0-0.843,0.434-1.394,1.276-1.394h24.746
			c0.843,0,1.525,0.551,1.525,1.394v5.194c0,0.843-0.777,1.527-1.62,1.527c-0.844,0-1.621-0.684-1.621-1.527v-3.887H51.822v15.19
			C51.822,68.178,51.315,68.862,50.472,68.862z"/>
	</g>
	<g>
		<path fill="#FFFFFF" d="M75.144,98.056H50.397c-0.843,0-1.276-0.55-1.276-1.394V79.554c0-0.844,0.507-1.527,1.351-1.527
			s1.351,0.684,1.351,1.527v15.802h21.605v-6.637c0-0.843,0.777-1.527,1.621-1.527c0.843,0,1.62,0.684,1.62,1.527v7.943
			C76.669,97.506,75.986,98.056,75.144,98.056z"/>
	</g>
	<g>
		<path fill="#FFFFFF" d="M75.049,80.776c-0.846,0-1.621-0.684-1.621-1.527V65.807c0-0.844,0.777-1.528,1.621-1.528
			c0.843,0,1.62,0.684,1.62,1.528v13.442C76.669,80.092,75.892,80.776,75.049,80.776z"/>
	</g>
	<g>
		<path fill="#FFFFFF" d="M95.918,98.056H75.144c-0.844,0-1.716-0.55-1.716-1.394v-7.943c0-0.843,0.777-1.527,1.621-1.527
			c0.843,0,1.62,0.684,1.62,1.527v6.637h17.824V73.209H76.669v6.345c0,0.844-0.777,1.527-1.62,1.527
			c-0.844,0-1.621-0.684-1.621-1.527v-7.942c0-0.844,0.872-1.643,1.716-1.643h20.774c0.843,0,1.275,0.799,1.275,1.643v25.05
			C97.193,97.506,96.76,98.056,95.918,98.056z"/>
	</g>
	<g>
		<g>
			<defs>
				<rect id="SVGID_1_" x="75.589" y="72.129" width="21.604" height="23.767"/>
			</defs>
			<clipPath id="SVGID_2_">
				<use xlink:href="#SVGID_1_"  overflow="visible"/>
			</clipPath>
			<g clip-path="url(#SVGID_2_)">
				<g>
					<path fill="#FFFFFF" d="M89.204,112.991c-0.124,0-0.248-0.05-0.34-0.15L61.798,83.065c-0.17-0.187-0.156-0.477,0.03-0.647
						c0.188-0.17,0.477-0.157,0.648,0.031l27.067,29.776c0.169,0.188,0.156,0.477-0.031,0.647
						C89.425,112.951,89.313,112.991,89.204,112.991z"/>
				</g>
				<g>
					<path fill="#FFFFFF" d="M91.284,110.704c-0.124,0-0.248-0.051-0.339-0.151L63.877,80.778c-0.17-0.187-0.157-0.477,0.03-0.647
						c0.188-0.169,0.478-0.157,0.647,0.032l27.069,29.775c0.17,0.187,0.155,0.477-0.032,0.647
						C91.505,110.664,91.395,110.704,91.284,110.704z"/>
				</g>
				<g>
					<path fill="#FFFFFF" d="M93.363,108.416c-0.124,0-0.248-0.05-0.339-0.15L65.956,78.49c-0.17-0.187-0.155-0.477,0.032-0.647
						c0.187-0.169,0.476-0.157,0.646,0.032l27.068,29.775c0.17,0.187,0.156,0.478-0.031,0.647
						C93.584,108.376,93.474,108.416,93.363,108.416z"/>
				</g>
				<g>
					<path fill="#FFFFFF" d="M95.443,106.128c-0.125,0-0.249-0.05-0.34-0.149L68.036,76.203c-0.169-0.187-0.156-0.477,0.031-0.647
						c0.187-0.169,0.477-0.157,0.647,0.032l27.067,29.774c0.17,0.188,0.156,0.478-0.031,0.647
						C95.664,106.089,95.554,106.128,95.443,106.128z"/>
				</g>
				<g>
					<path fill="#FFFFFF" d="M97.522,103.841c-0.124,0-0.249-0.05-0.34-0.149L70.115,73.916c-0.17-0.187-0.156-0.477,0.031-0.647
						c0.188-0.169,0.477-0.157,0.647,0.031l27.067,29.775c0.169,0.187,0.156,0.477-0.031,0.647
						C97.743,103.802,97.633,103.841,97.522,103.841z"/>
				</g>
				<g>
					<path fill="#FFFFFF" d="M99.602,101.554c-0.124,0-0.248-0.051-0.34-0.15L72.194,71.628c-0.17-0.188-0.156-0.477,0.032-0.647
						c0.187-0.169,0.477-0.157,0.646,0.031l27.067,29.775c0.17,0.188,0.156,0.477-0.031,0.647
						C99.822,101.514,99.712,101.554,99.602,101.554z"/>
				</g>
				<g>
					<path fill="#FFFFFF" d="M101.682,99.267c-0.124,0-0.249-0.051-0.339-0.15L74.273,69.341c-0.17-0.187-0.156-0.477,0.032-0.647
						c0.187-0.17,0.476-0.157,0.647,0.031L102.021,98.5c0.17,0.187,0.156,0.478-0.031,0.647
						C101.902,99.227,101.791,99.267,101.682,99.267z"/>
				</g>
				<g>
					<path fill="#FFFFFF" d="M103.761,96.979c-0.124,0-0.248-0.05-0.339-0.149L76.353,67.054c-0.169-0.188-0.155-0.477,0.032-0.647
						c0.187-0.17,0.477-0.157,0.647,0.031L104.1,96.213c0.17,0.188,0.156,0.477-0.031,0.647
						C103.98,96.94,103.871,96.979,103.761,96.979z"/>
				</g>
				<g>
					<path fill="#FFFFFF" d="M105.84,94.691c-0.124,0-0.248-0.051-0.339-0.15L78.434,64.766c-0.17-0.188-0.156-0.477,0.03-0.647
						c0.188-0.169,0.477-0.156,0.648,0.031l27.067,29.775c0.169,0.188,0.156,0.477-0.031,0.647
						C106.061,94.652,105.951,94.691,105.84,94.691z"/>
				</g>
				<g>
					<path fill="#FFFFFF" d="M107.92,92.404c-0.125,0-0.249-0.051-0.34-0.15L80.513,62.479c-0.17-0.188-0.156-0.477,0.031-0.647
						c0.188-0.169,0.476-0.156,0.647,0.031l27.068,29.775c0.17,0.188,0.155,0.477-0.032,0.647
						C108.141,92.364,108.03,92.404,107.92,92.404z"/>
				</g>
				<g>
					<path fill="#FFFFFF" d="M109.999,90.117c-0.124,0-0.249-0.051-0.339-0.15L82.592,60.191c-0.17-0.188-0.155-0.478,0.032-0.647
						c0.187-0.169,0.476-0.157,0.647,0.031l27.066,29.776c0.171,0.187,0.157,0.477-0.03,0.646
						C110.219,90.077,110.108,90.117,109.999,90.117z"/>
				</g>
				<g>
					<path fill="#FFFFFF" d="M112.079,87.829c-0.125,0-0.249-0.05-0.34-0.149L84.671,57.904c-0.169-0.188-0.156-0.477,0.031-0.647
						c0.187-0.17,0.478-0.157,0.647,0.031l27.067,29.774c0.17,0.188,0.156,0.478-0.03,0.648
						C112.299,87.79,112.189,87.829,112.079,87.829z"/>
				</g>
				<g>
					<path fill="#FFFFFF" d="M114.159,85.542c-0.125,0-0.25-0.051-0.341-0.151L86.751,55.616c-0.169-0.187-0.155-0.477,0.032-0.647
						c0.187-0.169,0.476-0.156,0.646,0.031l27.067,29.775c0.17,0.188,0.157,0.477-0.03,0.647
						C114.38,85.502,114.269,85.542,114.159,85.542z"/>
				</g>
				<g>
					<path fill="#FFFFFF" d="M116.238,83.255c-0.125,0-0.249-0.051-0.34-0.15L88.831,53.329c-0.17-0.188-0.156-0.477,0.031-0.647
						c0.188-0.169,0.476-0.157,0.646,0.03l27.068,29.775c0.17,0.187,0.156,0.478-0.031,0.647
						C116.459,83.215,116.348,83.255,116.238,83.255z"/>
				</g>
				<g>
					<path fill="#FFFFFF" d="M118.316,80.967c-0.123,0-0.248-0.051-0.339-0.15L90.909,51.042c-0.17-0.188-0.156-0.478,0.032-0.647
						c0.186-0.17,0.477-0.157,0.646,0.03l27.068,29.775c0.17,0.187,0.156,0.477-0.031,0.647
						C118.537,80.928,118.427,80.967,118.316,80.967z"/>
				</g>
				<g>
					<path fill="#FFFFFF" d="M120.396,78.679c-0.123,0-0.248-0.05-0.338-0.149l-27.07-29.775c-0.168-0.187-0.156-0.477,0.032-0.647
						c0.187-0.169,0.476-0.156,0.646,0.031l27.069,29.775c0.17,0.188,0.155,0.478-0.031,0.648
						C120.616,78.64,120.507,78.679,120.396,78.679z"/>
				</g>
				<g>
					<path fill="#FFFFFF" d="M122.477,76.392c-0.125,0-0.249-0.05-0.34-0.149L95.068,46.467c-0.169-0.188-0.155-0.477,0.031-0.647
						c0.188-0.169,0.477-0.156,0.647,0.031l27.067,29.774c0.17,0.188,0.157,0.478-0.031,0.648
						C122.696,76.353,122.587,76.392,122.477,76.392z"/>
				</g>
				<g>
					<path fill="#FFFFFF" d="M124.556,74.105c-0.125,0-0.248-0.051-0.34-0.15L97.148,44.179c-0.17-0.187-0.156-0.477,0.031-0.647
						c0.188-0.169,0.476-0.157,0.646,0.03l27.069,29.775c0.17,0.188,0.155,0.478-0.032,0.647
						C124.776,74.066,124.666,74.105,124.556,74.105z"/>
				</g>
			</g>
		</g>
	</g>
</g>
</svg>
