<?xml version="1.0" encoding="utf-8"?>
<!-- Generator: Adobe Illustrator 16.0.0, SVG Export Plug-In . SVG Version: 6.00 Build 0)  -->
<!DOCTYPE svg PUBLIC "-//W3C//DTD SVG 1.1//EN" "http://www.w3.org/Graphics/SVG/1.1/DTD/svg11.dtd">
<svg version="1.1" id="Camada_1" xmlns="http://www.w3.org/2000/svg" xmlns:xlink="http://www.w3.org/1999/xlink" x="0px" y="0px"
	 width="150px" height="150px" viewBox="0 0 150 150" enable-background="new 0 0 150 150" xml:space="preserve">
<rect fill="#797979" width="150" height="150"/>
<polygon opacity="0.1" points="49.53,106.416 158.667,235 210.617,227.601 228.667,163.667 100.974,63.588 81.876,48.511 
	50.17,48.668 "/>
<g>
	<path fill="#FFFFFF" d="M59.104,93.741c0,0.079-0.039,0.196-0.039,0.274v21.226c0,0.365,0.273,0.64,0.639,0.64
		c0.366,0,0.641-0.274,0.641-0.64V94.028c0-0.313-0.274-0.601-0.68-0.601c-0.156,0-0.313,0.079-0.404,0.157L59.104,93.741z"/>
	<path fill="#FFFFFF" d="M71.668,105.815c-0.078,0-0.194-0.039-0.274-0.039H50.17c-0.366,0-0.64,0.274-0.64,0.64
		c0,0.366,0.273,0.64,0.64,0.64h21.211c0.313,0,0.601-0.273,0.601-0.68c0-0.155-0.078-0.313-0.155-0.404L71.668,105.815z"/>
	<path fill="#FFFFFF" d="M99.569,93.741c0,0.079-0.039,0.196-0.039,0.274v21.226c0,0.365,0.274,0.64,0.64,0.64
		c0.366,0,0.641-0.274,0.641-0.64V94.028c0-0.313-0.274-0.601-0.68-0.601c-0.155,0-0.313,0.079-0.404,0.157L99.569,93.741z"/>
	<path fill="#FFFFFF" d="M71.668,48.707c-0.078,0-0.194-0.039-0.274-0.039H50.17c-0.366,0-0.64,0.273-0.64,0.64
		c0,0.365,0.273,0.64,0.64,0.64h21.211c0.313,0,0.601-0.274,0.601-0.68c0-0.156-0.078-0.313-0.155-0.404L71.668,48.707z"/>
	<path fill="#FFFFFF" d="M100.831,104.654c0,1.005,0,1.58,0,2.585c-13.643,0-28.288,0-42.072,0c0-1.005,0-1.58,0-2.585
		C72.543,104.654,87.188,104.654,100.831,104.654z"/>
	<path fill="#FFFFFF" d="M80.584,48.511c0,1.006,0,1.579,0,2.584c-7.036,0-14.646,0-21.682,0c0-1.005,0-1.578,0-2.584
		C65.938,48.511,73.548,48.511,80.584,48.511z"/>
	<path fill="#FFFFFF" d="M88.77,88.428c0,1.006,0,1.58,0,2.586c-9.765,0-20.104,0-29.867,0c0-1.006,0-1.58,0-2.586
		C68.666,88.428,79.005,88.428,88.77,88.428z"/>
	<path fill="#FFFFFF" d="M80.584,63.588c0,1.005,0,1.58,0,2.584c5.744,0,12.062,0,17.806,0c0-1.004,0-1.579,0-2.584
		C92.502,63.588,86.328,63.588,80.584,63.588z"/>
	<path fill="#FFFFFF" d="M79.147,48.511c1.006,0,1.724,0,2.729,0c0,7.611,0,15.651,0,23.262c-1.005,0-1.723,0-2.729,0
		C79.147,64.162,79.147,56.122,79.147,48.511z"/>
	<path fill="#FFFFFF" d="M79.147,75.937c1.006,0,1.724,0,2.729,0c0,4.882,0,10.195,0,15.077c-1.005,0-1.723,0-2.729,0
		C79.147,85.987,79.147,80.818,79.147,75.937z"/>
	<path fill="#FFFFFF" d="M70.964,98.049c1.004,0,1.722,0,2.728,0c0,2.153,0,5.744,0,7.897c-1.006,0-1.724,0-2.728,0
		C70.964,103.793,70.964,100.347,70.964,98.049z"/>
	<path fill="#FFFFFF" d="M70.964,89.578c1.004,0,1.722,0,2.728,0c0,1.291,0,2.728,0,4.02c-1.006,0-1.724,0-2.728,0
		C70.964,92.306,70.964,90.869,70.964,89.578z"/>
	<path fill="#FFFFFF" d="M99.681,88.428c0,1.006,0,1.58,0,2.586c-2.153,0-4.594,0-6.892,0c0-1.006,0-1.58,0-2.586
		C95.087,88.428,97.527,88.428,99.681,88.428z"/>
	<path fill="#FFFFFF" d="M58.902,49.947c1.005,0,1.579,0,2.584,0c0,18.236,0,37.764,0,56.142c-1.005,0-1.579,0-2.584,0
		C58.902,87.711,58.902,68.184,58.902,49.947z"/>
	<path fill="#FFFFFF" d="M98.39,63.588c1.005,0,1.579,0,2.584,0c0,13.784,0,28.573,0,42.358c-1.005,0-1.579,0-2.584,0
		C98.39,92.161,98.39,77.372,98.39,63.588z"/>
	<polygon fill="#FFFFFF" points="52.088,53.732 52.088,101.998 53.368,101.998 51.449,105.313 49.53,101.998 50.81,101.998 
		50.81,53.732 49.53,53.732 51.449,50.417 53.368,53.732 	"/>
	<polygon fill="#FFFFFF" points="95.729,112.356 95.729,113.635 63.784,113.635 63.784,112.356 60.671,114.274 63.784,116.193 
		63.784,114.914 95.765,114.914 95.765,116.193 98.878,114.274 95.765,112.356 	"/>
</g>
</svg>
