<?xml version="1.0" encoding="utf-8"?>
<!-- Generator: Adobe Illustrator 16.0.0, SVG Export Plug-In . SVG Version: 6.00 Build 0)  -->
<!DOCTYPE svg PUBLIC "-//W3C//DTD SVG 1.1//EN" "http://www.w3.org/Graphics/SVG/1.1/DTD/svg11.dtd">
<svg version="1.1" id="Camada_1" xmlns="http://www.w3.org/2000/svg" xmlns:xlink="http://www.w3.org/1999/xlink" x="0px" y="0px"
	 width="100px" height="100px" viewBox="0 0 100 100" enable-background="new 0 0 100 100" xml:space="preserve">
<g>
	<path fill="#FFFFFF" d="M77.67,74.419c3.026,3.026,3.026,7.869-0.122,11.016c-3.025,3.028-7.989,3.028-11.136,0l-19.371-20.7
		L28.882,86.646c-1.695,1.816-4.842,1.936-6.538,0l-4.6-4.721c-1.937-1.816-1.937-4.843-0.121-6.659l20.943-19.491l-10.048-9.563
		c-3.39-3.146-5.327-4.115-7.99-3.269c-2.664,0.968-6.416,0.968-9.927-1.331c-7.384-4.721-7.021-13.922-7.021-13.922l0.605-0.969
		l7.627,4.965c0,0,4.721,2.904,8.353-2.665c4.116-6.536-0.484-9.2-0.484-9.2l-7.627-4.842l0.727-0.969c0,0,7.021-4.48,15.253,0.241
		c5.085,3.026,7.627,8.958,6.295,14.769c-0.727,3.512,0,4.722,2.784,7.749l10.169,10.048l11.866-12.228l8.959,8.958L56.241,55.291
		L77.67,74.419z M89.896,37.256c1.454-1.453,3.875-1.211,5.206,0.12l1.332,1.331c1.453,1.453,1.21,3.633-0.121,4.964l-7.264,7.264
		c-1.453,1.452-3.632,1.573-5.084,0.121l-1.332-1.331c-1.454-1.453-1.454-3.753,0-5.206c0.242-0.848-0.484-2.421-1.937-3.874
		c-3.026-3.027-6.538-3.148-8.233-1.575l-2.42,2.542l-8.837-9.078l2.542-2.422c2.785-2.904-0.362-5.932-0.362-5.932
		c-7.748-7.748-18.645-7.506-18.645-7.506l-0.121-2.905c22.155-5.811,30.508,3.874,33.534,6.78l6.416,6.416
		c1.574,1.693-0.121,6.295,2.18,8.716C87.718,36.771,88.929,37.134,89.896,37.256z M72.101,83.983c2.301,0,4.117-1.816,4.117-4.117
		c0-2.3-1.816-4.114-4.117-4.114c-2.3,0-4.115,1.814-4.115,4.114C67.985,82.167,69.801,83.983,72.101,83.983z"/>
</g>
</svg>
