<?xml version="1.0" encoding="utf-8"?>
<!-- Generator: Adobe Illustrator 16.0.0, SVG Export Plug-In . SVG Version: 6.00 Build 0)  -->
<!DOCTYPE svg PUBLIC "-//W3C//DTD SVG 1.1//EN" "http://www.w3.org/Graphics/SVG/1.1/DTD/svg11.dtd">
<svg version="1.1" id="Camada_1" xmlns="http://www.w3.org/2000/svg" xmlns:xlink="http://www.w3.org/1999/xlink" x="0px" y="0px"
	 width="150px" height="150px" viewBox="0 0 150 150" enable-background="new 0 0 150 150" xml:space="preserve">
<path id="The_Sharpness" opacity="0.12" enable-background="new    " d="M59.484,50.961L93.357,73.58l4.752-2.467L59.484,50.961z"/>
<g id="Lozenge">
	<g>
		<path d="M145.046,46.42c0,0-1.396-9.851-5.685-14.188c-5.435-5.693-11.526-5.722-14.32-6.055
			C105.037,24.73,75.03,24.73,75.03,24.73h-0.063c0,0-30.005,0-50.009,1.446c-2.794,0.333-8.886,0.361-14.323,6.055
			C6.35,36.569,4.956,46.42,4.956,46.42s-1.43,11.568-1.43,23.136V80.4c0,11.567,1.43,23.135,1.43,23.135s1.394,9.852,5.68,14.189
			c5.438,5.692,12.581,5.514,15.763,6.108C37.835,124.932,75,125.27,75,125.27s30.038-0.045,50.042-1.49
			c2.794-0.332,8.888-0.361,14.321-6.055c4.287-4.338,5.684-14.189,5.684-14.189s1.428-11.566,1.428-23.135V69.556
			C146.475,57.988,145.046,46.42,145.046,46.42z M60.243,93.543l-0.008-40.165L98.861,73.53L60.243,93.543z"/>
	</g>
</g>
</svg>
