<?xml version="1.0" encoding="utf-8"?>
<!-- Generator: Adobe Illustrator 16.0.0, SVG Export Plug-In . SVG Version: 6.00 Build 0)  -->
<!DOCTYPE svg PUBLIC "-//W3C//DTD SVG 1.1//EN" "http://www.w3.org/Graphics/SVG/1.1/DTD/svg11.dtd">
<svg version="1.1" id="Camada_1" xmlns="http://www.w3.org/2000/svg" xmlns:xlink="http://www.w3.org/1999/xlink" x="0px" y="0px"
	 width="150px" height="150px" viewBox="0 0 150 150" enable-background="new 0 0 150 150" xml:space="preserve">
<path id="White_2_" fill="#FFFFFF" d="M125.955,17.721H24.045c-3.493,0-6.324,2.829-6.324,6.323v101.911
	c0,3.492,2.831,6.324,6.324,6.324H78.91V87.917H63.98V70.626h14.93v-12.75c0-14.796,9.039-22.854,22.236-22.854
	c6.323,0,11.758,0.471,13.342,0.681v15.464l-9.155,0.002c-7.178,0-8.568,3.413-8.568,8.418v11.037h17.119l-2.228,17.291H96.765
	v44.362h29.19c3.493,0,6.324-2.832,6.324-6.324V24.044C132.279,20.55,129.448,17.721,125.955,17.721z"/>
</svg>
