<?xml version="1.0" encoding="utf-8"?>
<!-- Generator: Adobe Illustrator 16.0.0, SVG Export Plug-In . SVG Version: 6.00 Build 0)  -->
<!DOCTYPE svg PUBLIC "-//W3C//DTD SVG 1.1//EN" "http://www.w3.org/Graphics/SVG/1.1/DTD/svg11.dtd">
<svg version="1.1" id="Camada_1" xmlns="http://www.w3.org/2000/svg" xmlns:xlink="http://www.w3.org/1999/xlink" x="0px" y="0px"
	 width="150px" height="150px" viewBox="0 0 150 150" enable-background="new 0 0 150 150" xml:space="preserve">
<path d="M140.835,34.165c-4.844,2.148-10.051,3.601-15.517,4.253c5.578-3.343,9.861-8.637,11.879-14.945
	c-5.219,3.096-11,5.345-17.153,6.556c-4.928-5.25-11.948-8.531-19.718-8.531c-14.92,0-27.015,12.095-27.015,27.013
	c0,2.118,0.238,4.179,0.7,6.156c-22.452-1.125-42.356-11.88-55.68-28.224c-2.326,3.99-3.658,8.63-3.658,13.581
	c0,9.371,4.77,17.641,12.018,22.485c-4.428-0.141-8.594-1.355-12.236-3.378c-0.002,0.113-0.002,0.226-0.002,0.34
	c0,13.088,9.312,24.005,21.669,26.488c-2.267,0.617-4.653,0.947-7.117,0.947c-1.741,0-3.433-0.168-5.083-0.486
	c3.438,10.734,13.413,18.545,25.234,18.764c-9.245,7.244-20.893,11.563-33.549,11.563c-2.181,0-4.33-0.127-6.444-0.377
	c11.955,7.664,26.154,12.135,41.41,12.135c49.688,0,76.86-41.162,76.86-76.86c0-1.171-0.027-2.334-0.078-3.494
	C132.633,44.34,137.214,39.582,140.835,34.165z"/>
</svg>
