<?xml version="1.0" encoding="utf-8"?>
<!-- Generator: Adobe Illustrator 16.0.0, SVG Export Plug-In . SVG Version: 6.00 Build 0)  -->
<!DOCTYPE svg PUBLIC "-//W3C//DTD SVG 1.1//EN" "http://www.w3.org/Graphics/SVG/1.1/DTD/svg11.dtd">
<svg version="1.1" id="Camada_1" xmlns="http://www.w3.org/2000/svg" xmlns:xlink="http://www.w3.org/1999/xlink" x="0px" y="0px"
	 width="117px" height="38.5px" viewBox="0 0 117 38.5" enable-background="new 0 0 117 38.5" xml:space="preserve">
<g id="Brand_1_">
	<g id="simbol_1_">
		<polygon fill="#FFFFFF" points="15.577,0.407 31.156,27.374 25.967,36.366 10.385,9.399 		"/>
		<polygon fill="#FFFFFF" points="0,27.374 8.67,12.369 13.852,21.387 5.192,36.366 		"/>
	</g>
	<g id="brand-name_1_">
		<path fill="#FFFFFF" d="M83.277,19.873c-4.364,0-6.84,2.634-6.84,5.988v4.871c0,3.354,2.476,5.988,6.84,5.988
			c4.459,0,6.793-2.674,6.793-5.988v-4.871C90.072,22.547,87.736,19.873,83.277,19.873z M83.271,34.792
			c-4.19,0-3.94-2.788-3.94-6.453c0-3.685-0.25-6.537,3.94-6.537c4.194,0,3.91,2.853,3.91,6.537S87.466,34.792,83.271,34.792z"/>
		<path fill="#FFFFFF" d="M57.298,36.404h-3.391l-2.482-6.609h-9.326l-2.45,6.609h-3.221l8.658-21.774h3.757L57.298,36.404z
			 M50.62,27.547l-3.689-9.832h-0.304l-3.692,9.832H50.62L50.62,27.547z"/>
		<path fill="#FFFFFF" d="M62.645,36.412h-3.021V14.64h3.021V36.412z"/>
		<path fill="#FFFFFF" d="M74.768,36.748c-2.824,0.1-4.429-0.35-5.232-1.057c-0.805-0.703-1.207-2.041-1.207-4.01v-9.863h-3.385
			v-1.979h3.385v-5.2h3.054v5.2h3.39v1.979h-3.39V31.85c0,1.164,0.22,1.939,0.673,2.33c0.445,0.394,1.35,0.588,2.717,0.588v1.979
			L74.768,36.748L74.768,36.748z"/>
		<path fill="#FFFFFF" d="M117.134,17.792h-3.021V14.64h3.021V17.792z M117.134,36.412h-3.021v-16.54h3.021V36.412z"/>
		<path fill="#FFFFFF" d="M110.098,29.389V21.93c0-4.367-2.922-7.367-8.507-7.367c-5.459,0-8.559,2.947-8.559,7.367v7.459
			c0,4.42,3.1,7.369,8.559,7.369c1.697,0,3.142-0.277,4.339-0.783l2.088,2.088l1.646-1.652l-1.713-1.712
			C109.373,33.4,110.098,31.563,110.098,29.389z M103.236,29.979l-1.646,1.657l2.638,2.638c-0.692,0.25-1.561,0.384-2.641,0.384
			c-5.813,0-5.46-3.866-5.46-8.938c0-5.105-0.351-9.055,5.46-9.055c5.807,0,5.413,3.949,5.413,9.055
			c0,2.975,0.132,5.516-0.907,7.121L103.236,29.979z"/>
	</g>
</g>
</svg>
