<?xml version="1.0" encoding="utf-8"?>
<!-- Generator: Adobe Illustrator 16.0.0, SVG Export Plug-In . SVG Version: 6.00 Build 0)  -->
<!DOCTYPE svg PUBLIC "-//W3C//DTD SVG 1.1//EN" "http://www.w3.org/Graphics/SVG/1.1/DTD/svg11.dtd">
<svg version="1.1" id="brand-altoqi" xmlns="http://www.w3.org/2000/svg" xmlns:xlink="http://www.w3.org/1999/xlink" x="0px"
	 y="0px" width="442px" height="57.667px" viewBox="419 54.667 442 57.667" enable-background="new 419 54.667 442 57.667"
	 xml:space="preserve">
<g>
	<g id="Brand">
		<g id="simbol">
			<polygon fill="#6EAA77" points="440.502,58.1 461.097,93.749 454.233,105.637 433.637,69.987 			"/>
			<polygon fill="#5A656C" points="419.907,93.749 431.371,73.912 438.219,85.833 426.772,105.637 			"/>
		</g>
		<g id="brand-name">
			<path fill="#5C656E" d="M529.997,83.833c-5.769,0-9.041,3.484-9.041,7.917v6.439c0,4.433,3.272,7.916,9.041,7.916
				c5.897,0,8.984-3.534,8.984-7.916v-6.439C538.981,87.367,535.895,83.833,529.997,83.833z M529.99,103.554
				c-5.542,0-5.21-3.688-5.21-8.53c0-4.871-0.332-8.64,5.21-8.64c5.543,0,5.168,3.77,5.168,8.64
				C535.158,99.894,535.534,103.554,529.99,103.554z"/>
			<path fill="#5C656E" d="M495.651,105.686h-4.479l-3.283-8.738H475.56l-3.238,8.738h-4.258l11.443-28.784h4.967L495.651,105.686z
				 M486.825,93.977l-4.878-12.995h-0.399l-4.879,12.995H486.825L486.825,93.977z"/>
			<path fill="#5C656E" d="M502.72,105.697h-3.992V76.914h3.992V105.697z"/>
			<path fill="#5C656E" d="M518.75,106.141c-3.735,0.13-5.854-0.466-6.919-1.397c-1.064-0.932-1.596-2.698-1.596-5.3V86.404h-4.474
				v-2.617h4.474v-6.875h4.036v6.875h4.479v2.617h-4.479v13.261c0,1.537,0.294,2.565,0.886,3.083
				c0.592,0.518,1.789,0.776,3.594,0.776L518.75,106.141L518.75,106.141z"/>
			<path fill="#5C656E" d="M574.755,81.082h-3.991v-4.168h3.991V81.082z M574.755,105.697h-3.991V83.833h3.991V105.697z"/>
			<path fill="#5C656E" d="M565.454,96.412v-9.86c0-5.773-3.865-9.74-11.246-9.74c-7.221,0-11.317,3.899-11.317,9.74v9.86
				c0,5.843,4.096,9.741,11.317,9.741c2.239,0,4.152-0.365,5.734-1.036l2.761,2.762l2.176-2.187l-2.262-2.263
				C564.494,101.718,565.454,99.289,565.454,96.412z M556.382,97.193l-2.174,2.188l3.486,3.488
				c-0.918,0.329-2.063,0.506-3.493,0.506c-7.68,0-7.22-5.107-7.22-11.817c0-6.749-0.46-11.969,7.22-11.969s7.159,5.22,7.159,11.969
				c0,3.933,0.174,7.293-1.199,9.415L556.382,97.193z"/>
		</g>
	</g>
	<g id="tagline">
		<path fill="#5C656E" d="M603.145,87.049h-2.943v-1.067h7.215v1.067h-3.044v9.971h-1.227L603.145,87.049L603.145,87.049z"/>
		<path fill="#5C656E" d="M615.836,96.565c-0.996,0.399-2.095,0.6-3.297,0.6c-0.697,0-1.29-0.072-1.775-0.216
			c-0.775-0.222-1.289-0.679-1.544-1.372c-0.236-0.649-0.354-1.61-0.354-2.886v-0.368c0-1.524,0.317-2.595,0.953-3.21
			c0.572-0.548,1.527-0.823,2.864-0.823c1.304,0,2.194,0.322,2.67,0.967c0.231,0.313,0.384,0.692,0.458,1.137
			c0.075,0.445,0.112,0.87,0.112,1.274c0,0.629-0.015,1.118-0.043,1.464c-0.678,0.028-1.287,0.043-1.825,0.043h-1.162
			c-1.213,0-2.145-0.053-2.8-0.158c0,1.105,0.139,1.878,0.418,2.316c0.342,0.533,1.022,0.8,2.042,0.8
			c1.02,0,1.997-0.198,2.929-0.598L615.836,96.565z M614.703,92.172v-0.692c0-0.756-0.146-1.294-0.44-1.616
			c-0.327-0.36-0.893-0.541-1.695-0.541c-0.961,0-1.619,0.209-1.97,0.628c-0.336,0.398-0.505,1.14-0.505,2.222H614.703z"/>
		<path fill="#5C656E" d="M624.919,96.639c-0.668,0.351-1.584,0.526-2.749,0.526c-0.688,0-1.193-0.054-1.515-0.158
			c-0.823-0.279-1.361-0.754-1.616-1.421c-0.178-0.468-0.281-0.97-0.311-1.509c-0.029-0.538-0.042-0.994-0.042-1.363
			c0-0.371,0.009-0.732,0.028-1.086c0.02-0.354,0.066-0.693,0.141-1.021c0.075-0.327,0.189-0.632,0.343-0.913
			c0.154-0.281,0.363-0.528,0.627-0.739c0.573-0.443,1.395-0.665,2.468-0.665c0.789,0,1.515,0.116,2.179,0.347
			c0.178,0.058,0.312,0.113,0.404,0.166l-0.361,1.067c-0.924-0.356-1.68-0.533-2.269-0.533s-1.022,0.067-1.298,0.202
			c-0.277,0.134-0.492,0.338-0.646,0.613c-0.26,0.471-0.39,1.337-0.39,2.597c0,0.505,0.017,0.966,0.051,1.383
			c0.034,0.415,0.118,0.772,0.253,1.07c0.284,0.615,0.869,0.924,1.757,0.924c0.887,0,1.75-0.154,2.586-0.462L624.919,96.639z"/>
		<path fill="#5C656E" d="M631.644,89.416c-0.938,0-1.893,0.276-2.865,0.83v6.773h-1.197v-8.585h1.053l0.115,0.888
			c0.524-0.428,1.176-0.733,1.955-0.916c0.318-0.077,0.691-0.116,1.119-0.116c0.428,0,0.806,0.05,1.132,0.148
			c0.328,0.1,0.587,0.256,0.78,0.473c0.351,0.389,0.526,1.1,0.526,2.128v5.98h-1.212v-5.756c0-0.693-0.067-1.139-0.202-1.339
			c-0.135-0.2-0.295-0.334-0.48-0.404C632.184,89.451,631.942,89.416,631.644,89.416z"/>
		<path fill="#5C656E" d="M637.17,92.749c0-1.091,0.055-1.854,0.166-2.287c0.111-0.433,0.246-0.775,0.408-1.028
			c0.161-0.252,0.379-0.462,0.653-0.631c0.549-0.342,1.359-0.513,2.432-0.513c1.549,0,2.545,0.383,2.986,1.148
			c0.266,0.462,0.417,1.112,0.455,1.955c0.015,0.398,0.021,0.839,0.021,1.32c0,0.48-0.016,0.929-0.046,1.346
			c-0.032,0.416-0.093,0.789-0.185,1.122c-0.092,0.331-0.219,0.621-0.382,0.869c-0.163,0.247-0.38,0.455-0.649,0.624
			c-0.529,0.327-1.302,0.49-2.316,0.49c-1.52,0-2.518-0.374-2.994-1.126c-0.293-0.465-0.465-1.12-0.513-1.962
			C637.183,93.673,637.17,93.229,637.17,92.749z M639.133,95.759c0.174,0.129,0.391,0.227,0.653,0.291
			c0.263,0.065,0.621,0.098,1.076,0.098c0.454,0,0.837-0.065,1.147-0.194c0.31-0.13,0.543-0.339,0.699-0.624
			c0.156-0.286,0.255-0.658,0.296-1.115c0.04-0.457,0.062-0.989,0.062-1.595s-0.018-1.111-0.055-1.516
			c-0.035-0.403-0.126-0.738-0.271-1.002c-0.288-0.521-0.931-0.779-1.926-0.779c-1.053,0-1.739,0.259-2.057,0.779
			c-0.158,0.264-0.259,0.601-0.302,1.01c-0.044,0.408-0.066,0.854-0.066,1.334c0,0.481,0.007,0.89,0.019,1.223
			c0.011,0.336,0.043,0.637,0.094,0.903s0.125,0.498,0.224,0.695C638.824,95.465,638.959,95.628,639.133,95.759z"/>
		<path fill="#5C656E" d="M647.517,84.755h1.19V97.02h-1.19V84.755z"/>
		<path fill="#5C656E" d="M710.257,84.755h1.19V97.02h-1.19V84.755z"/>
		<path fill="#5C656E" d="M651.932,92.749c0-1.091,0.056-1.854,0.166-2.287c0.111-0.433,0.247-0.775,0.408-1.028
			c0.161-0.252,0.379-0.462,0.652-0.631c0.549-0.342,1.359-0.513,2.432-0.513c1.549,0,2.545,0.383,2.987,1.148
			c0.265,0.462,0.416,1.112,0.454,1.955c0.015,0.398,0.021,0.839,0.021,1.32c0,0.48-0.016,0.929-0.047,1.346
			c-0.031,0.416-0.093,0.789-0.183,1.122c-0.092,0.331-0.22,0.621-0.383,0.869c-0.164,0.247-0.38,0.455-0.649,0.624
			c-0.529,0.327-1.301,0.49-2.315,0.49c-1.521,0-2.519-0.374-2.995-1.126c-0.293-0.465-0.464-1.12-0.513-1.962
			C651.944,93.673,651.932,93.229,651.932,92.749z M653.895,95.759c0.172,0.129,0.391,0.227,0.652,0.291
			c0.263,0.065,0.621,0.098,1.075,0.098c0.455,0,0.838-0.065,1.147-0.194c0.312-0.13,0.545-0.339,0.7-0.624
			c0.156-0.286,0.255-0.658,0.296-1.115s0.062-0.989,0.062-1.595s-0.019-1.111-0.055-1.516c-0.036-0.403-0.126-0.738-0.271-1.002
			c-0.288-0.521-0.931-0.779-1.926-0.779c-1.054,0-1.739,0.259-2.057,0.779c-0.159,0.264-0.26,0.601-0.303,1.01
			c-0.044,0.408-0.065,0.854-0.065,1.334c0,0.481,0.006,0.89,0.018,1.223c0.013,0.336,0.044,0.637,0.095,0.903
			c0.05,0.267,0.124,0.498,0.224,0.695C653.586,95.465,653.721,95.628,653.895,95.759z"/>
		<path fill="#5C656E" d="M667.545,89.026l0.115-0.592h1.039l0.007,8.428c0,1.236-0.242,2.135-0.728,2.698
			c-0.52,0.597-1.398,0.895-2.634,0.895c-0.962,0-1.815-0.13-2.562-0.39c-0.188-0.063-0.331-0.12-0.433-0.173l0.375-1.018
			c0.087,0.029,0.214,0.076,0.382,0.14c0.169,0.065,0.371,0.13,0.606,0.192c0.597,0.159,1.144,0.237,1.642,0.237
			s0.882-0.05,1.15-0.15c0.27-0.102,0.479-0.258,0.629-0.47c0.25-0.355,0.375-1.003,0.375-1.94v-0.686
			c-0.919,0.645-1.891,0.967-2.915,0.967c-1.198,0-1.996-0.426-2.396-1.277c-0.231-0.481-0.365-1.089-0.404-1.825
			c-0.015-0.337-0.021-0.709-0.021-1.115c0-0.405,0.004-0.816,0.011-1.229c0.008-0.414,0.037-0.797,0.091-1.147
			c0.052-0.351,0.136-0.667,0.249-0.948c0.112-0.281,0.274-0.521,0.486-0.718c0.438-0.409,1.112-0.614,2.023-0.614
			C665.546,88.29,666.516,88.536,667.545,89.026z M667.509,90.022c-0.866-0.433-1.703-0.649-2.511-0.649
			c-0.587,0-0.975,0.048-1.162,0.145c-0.187,0.096-0.33,0.221-0.43,0.375c-0.098,0.153-0.179,0.365-0.241,0.635
			c-0.11,0.505-0.166,1.337-0.166,2.495v0.159c0,1.068,0.133,1.816,0.396,2.244c0.265,0.438,0.748,0.656,1.45,0.656h0.109
			c0.663,0,1.342-0.183,2.034-0.548c0.197-0.102,0.37-0.204,0.52-0.311V90.022L667.509,90.022z"/>
		<g>
			<path fill="#5C656E" d="M672.131,88.435h1.19v8.585h-1.19V88.435z"/>
			<path fill="#5C656E" d="M672.134,85.981h1.184v1.263h-1.184V85.981z"/>
		</g>
		<g>
			<path fill="#5C656E" d="M715.181,88.435h1.191v8.585h-1.191V88.435z"/>
			<path fill="#5C656E" d="M715.185,85.981h1.183v1.263h-1.183V85.981z"/>
		</g>
		<g>
			<path fill="#5C656E" d="M850.525,88.435h1.19v8.585h-1.19V88.435z"/>
			<path fill="#5C656E" d="M850.528,85.981h1.184v1.263h-1.184V85.981z"/>
		</g>
		<path fill="#5C656E" d="M683.359,93.976c0,0.957,0.046,1.953,0.138,2.987l-1.068,0.086l-0.18-1.003
			c-0.61,0.491-1.419,0.832-2.424,1.024c-0.327,0.063-0.618,0.094-0.874,0.094c-0.254,0-0.479-0.012-0.674-0.036
			c-0.195-0.023-0.382-0.07-0.563-0.14c-0.181-0.07-0.349-0.167-0.501-0.293c-0.155-0.125-0.289-0.291-0.405-0.498
			c-0.245-0.437-0.367-0.963-0.367-1.576s0.044-1.09,0.133-1.429c0.09-0.34,0.237-0.622,0.444-0.848
			c0.409-0.447,1.097-0.671,2.063-0.671c0.966,0,1.998,0.183,3.095,0.549v-0.938c0-1.043-0.431-1.661-1.291-1.854
			c-0.278-0.063-0.6-0.094-0.96-0.094c-0.822,0-1.676,0.162-2.562,0.49l-0.267-1.039c0.245-0.163,0.87-0.311,1.875-0.439
			c0.318-0.039,0.699-0.059,1.145-0.059c0.444,0,0.881,0.053,1.31,0.159c0.428,0.106,0.784,0.279,1.067,0.52
			c0.577,0.477,0.865,1.248,0.865,2.315V93.976L683.359,93.976z M682.148,93.124c-1.127-0.284-2.164-0.426-3.117-0.426
			c-0.587,0-0.977,0.169-1.169,0.506c-0.13,0.235-0.195,0.584-0.195,1.046s0.026,0.796,0.076,1.003
			c0.052,0.207,0.133,0.378,0.249,0.513c0.227,0.255,0.599,0.383,1.118,0.383c0.813,0,1.618-0.21,2.417-0.628
			c0.246-0.125,0.467-0.265,0.664-0.419C682.162,94.583,682.148,93.923,682.148,93.124z"/>
		<path fill="#5C656E" d="M696.888,93.976c0,0.957,0.046,1.953,0.138,2.987l-1.068,0.086l-0.181-1.003
			c-0.61,0.491-1.418,0.832-2.424,1.024c-0.327,0.063-0.617,0.094-0.873,0.094c-0.255,0-0.479-0.012-0.675-0.036
			c-0.194-0.023-0.382-0.07-0.562-0.14c-0.181-0.07-0.349-0.167-0.502-0.293c-0.155-0.125-0.289-0.291-0.404-0.498
			c-0.245-0.437-0.368-0.963-0.368-1.576s0.045-1.09,0.134-1.429c0.089-0.34,0.236-0.622,0.444-0.848
			c0.409-0.447,1.096-0.671,2.063-0.671s1.998,0.183,3.096,0.549v-0.938c0-1.043-0.431-1.661-1.292-1.854
			c-0.279-0.063-0.599-0.094-0.96-0.094c-0.821,0-1.677,0.162-2.561,0.49l-0.268-1.039c0.245-0.163,0.871-0.311,1.876-0.439
			c0.317-0.039,0.698-0.059,1.144-0.059s0.882,0.053,1.31,0.159s0.785,0.279,1.068,0.52c0.577,0.477,0.865,1.248,0.865,2.315V93.976
			L696.888,93.976z M695.676,93.124c-1.126-0.284-2.165-0.426-3.117-0.426c-0.586,0-0.976,0.169-1.168,0.506
			c-0.131,0.235-0.195,0.584-0.195,1.046s0.025,0.796,0.076,1.003c0.05,0.207,0.133,0.378,0.249,0.513
			c0.227,0.255,0.599,0.383,1.118,0.383c0.813,0,1.619-0.21,2.416-0.628c0.246-0.125,0.468-0.265,0.664-0.419
			C695.69,94.583,695.676,93.923,695.676,93.124z"/>
		<path fill="#5C656E" d="M701.311,96.508v3.796h-1.196V88.435h0.974l0.136,0.888c0.564-0.423,1.297-0.733,2.201-0.931
			c0.328-0.067,0.683-0.102,1.067-0.102s0.726,0.051,1.021,0.152c0.296,0.101,0.539,0.241,0.732,0.422
			c0.192,0.181,0.342,0.396,0.447,0.646c0.106,0.249,0.186,0.521,0.237,0.814c0.067,0.404,0.102,1.049,0.102,1.934v0.166
			c0,1.125-0.038,1.904-0.115,2.338s-0.178,0.79-0.303,1.07c-0.125,0.282-0.299,0.521-0.52,0.719
			c-0.458,0.409-1.165,0.613-2.121,0.613C703.017,97.165,702.128,96.946,701.311,96.508z M701.311,95.521
			c0.817,0.374,1.677,0.563,2.576,0.563c0.586,0,1.015-0.108,1.284-0.324c0.365-0.3,0.569-0.993,0.612-2.086
			c0.015-0.36,0.021-0.774,0.021-1.24v-0.159c0-1.106-0.096-1.847-0.288-2.223c-0.216-0.428-0.663-0.642-1.342-0.642h-0.108
			c-0.707,0-1.441,0.176-2.2,0.526c-0.222,0.102-0.407,0.204-0.557,0.311L701.311,95.521L701.311,95.521z"/>
		<path fill="#5C656E" d="M725.819,96.639c-0.668,0.351-1.585,0.526-2.748,0.526c-0.688,0-1.193-0.054-1.516-0.158
			c-0.823-0.279-1.361-0.754-1.616-1.421c-0.178-0.468-0.281-0.97-0.31-1.509c-0.03-0.538-0.044-0.994-0.044-1.363
			c0-0.371,0.009-0.732,0.029-1.086c0.019-0.354,0.065-0.693,0.14-1.021c0.075-0.327,0.188-0.632,0.344-0.913
			c0.154-0.281,0.362-0.528,0.626-0.739c0.573-0.443,1.396-0.665,2.469-0.665c0.789,0,1.516,0.116,2.179,0.347
			c0.178,0.058,0.313,0.113,0.404,0.166l-0.361,1.067c-0.923-0.356-1.68-0.533-2.269-0.533s-1.021,0.067-1.299,0.202
			c-0.275,0.134-0.491,0.338-0.645,0.613c-0.26,0.471-0.391,1.337-0.391,2.597c0,0.505,0.018,0.966,0.051,1.383
			c0.034,0.415,0.119,0.772,0.253,1.07c0.284,0.615,0.869,0.924,1.757,0.924s1.749-0.154,2.587-0.462L725.819,96.639z"/>
		<path fill="#5C656E" d="M735.055,93.976c0,0.957,0.046,1.953,0.137,2.987l-1.067,0.086l-0.181-1.003
			c-0.611,0.491-1.418,0.832-2.425,1.024c-0.326,0.063-0.618,0.094-0.872,0.094c-0.255,0-0.479-0.012-0.675-0.036
			c-0.194-0.023-0.383-0.07-0.563-0.14c-0.181-0.07-0.348-0.167-0.502-0.293c-0.153-0.125-0.288-0.291-0.404-0.498
			c-0.244-0.437-0.368-0.963-0.368-1.576s0.045-1.09,0.135-1.429c0.088-0.34,0.236-0.622,0.442-0.848
			c0.409-0.447,1.098-0.671,2.063-0.671c0.968,0,1.999,0.183,3.096,0.549v-0.938c0-1.043-0.431-1.661-1.292-1.854
			c-0.278-0.063-0.599-0.094-0.959-0.094c-0.823,0-1.677,0.162-2.561,0.49l-0.268-1.039c0.245-0.163,0.871-0.311,1.876-0.439
			c0.316-0.039,0.698-0.059,1.144-0.059s0.882,0.053,1.31,0.159s0.783,0.279,1.067,0.52c0.577,0.477,0.866,1.248,0.866,2.315V93.976
			L735.055,93.976z M733.842,93.124c-1.125-0.284-2.164-0.426-3.116-0.426c-0.586,0-0.977,0.169-1.169,0.506
			c-0.13,0.235-0.194,0.584-0.194,1.046s0.025,0.796,0.076,1.003c0.05,0.207,0.133,0.378,0.248,0.513
			c0.227,0.255,0.599,0.383,1.118,0.383c0.813,0,1.619-0.21,2.417-0.628c0.246-0.125,0.467-0.265,0.664-0.419
			C733.857,94.583,733.842,93.923,733.842,93.124z"/>
		<path fill="#5C656E" d="M743.9,96.061c-1.016,0.737-2.047,1.104-3.095,1.104c-1.16,0-1.932-0.426-2.316-1.277
			c-0.222-0.481-0.345-0.989-0.371-1.525c-0.026-0.537-0.04-1.008-0.04-1.415c0-0.405,0.004-0.816,0.011-1.229
			c0.007-0.414,0.037-0.797,0.091-1.147c0.053-0.351,0.135-0.667,0.248-0.948c0.112-0.281,0.275-0.521,0.487-0.718
			c0.438-0.409,1.16-0.614,2.168-0.614s1.918,0.176,2.731,0.527v-4.063h1.197v8.318c0,1.661,0.045,2.957,0.137,3.89l-1.074,0.087
			L743.9,96.061z M743.813,89.807c-0.865-0.289-1.702-0.434-2.511-0.434c-0.587,0-0.974,0.049-1.162,0.145
			c-0.188,0.096-0.33,0.221-0.429,0.375s-0.18,0.365-0.241,0.635c-0.111,0.505-0.167,1.337-0.167,2.496v0.159
			c0,1.082,0.118,1.83,0.354,2.243c0.256,0.438,0.729,0.657,1.421,0.657h0.108c0.665,0,1.371-0.212,2.121-0.635
			c0.207-0.115,0.385-0.231,0.535-0.347v-0.014c-0.025-0.448-0.037-1.139-0.037-2.071L743.813,89.807z"/>
		<path fill="#5C656E" d="M754.736,93.976c0,0.957,0.046,1.953,0.138,2.987l-1.067,0.086l-0.181-1.003
			c-0.61,0.491-1.419,0.832-2.425,1.024c-0.326,0.063-0.618,0.094-0.872,0.094c-0.256,0-0.48-0.012-0.676-0.036
			c-0.194-0.023-0.382-0.07-0.563-0.14c-0.18-0.07-0.347-0.167-0.501-0.293c-0.154-0.125-0.288-0.291-0.403-0.498
			c-0.246-0.437-0.369-0.963-0.369-1.576s0.044-1.09,0.135-1.429c0.088-0.34,0.236-0.622,0.443-0.848
			c0.408-0.447,1.097-0.671,2.063-0.671c0.967,0,1.999,0.183,3.096,0.549v-0.938c0-1.043-0.432-1.661-1.292-1.854
			c-0.278-0.063-0.599-0.094-0.959-0.094c-0.822,0-1.677,0.162-2.562,0.49l-0.267-1.039c0.244-0.163,0.87-0.311,1.875-0.439
			c0.318-0.039,0.699-0.059,1.144-0.059c0.445,0,0.881,0.053,1.311,0.159c0.428,0.106,0.784,0.279,1.067,0.52
			c0.577,0.477,0.865,1.248,0.865,2.315V93.976L754.736,93.976z M753.525,93.124c-1.126-0.284-2.165-0.426-3.117-0.426
			c-0.587,0-0.977,0.169-1.169,0.506c-0.13,0.235-0.195,0.584-0.195,1.046s0.025,0.796,0.076,1.003s0.134,0.378,0.249,0.513
			c0.227,0.255,0.6,0.383,1.118,0.383c0.813,0,1.619-0.21,2.417-0.628c0.246-0.125,0.466-0.265,0.664-0.419
			C753.54,94.583,753.525,93.923,753.525,93.124z"/>
		<path fill="#5C656E" d="M768.265,93.976c0,0.957,0.046,1.953,0.138,2.987l-1.068,0.086l-0.18-1.003
			c-0.611,0.491-1.42,0.832-2.425,1.024c-0.327,0.063-0.617,0.094-0.873,0.094c-0.255,0-0.479-0.012-0.675-0.036
			c-0.195-0.023-0.383-0.07-0.563-0.14c-0.181-0.07-0.349-0.167-0.502-0.293c-0.153-0.125-0.288-0.291-0.404-0.498
			c-0.244-0.437-0.367-0.963-0.367-1.576s0.044-1.09,0.133-1.429c0.09-0.34,0.238-0.622,0.445-0.848
			c0.408-0.447,1.096-0.671,2.063-0.671s1.999,0.183,3.095,0.549v-0.938c0-1.043-0.43-1.661-1.292-1.854
			c-0.278-0.063-0.598-0.094-0.96-0.094c-0.821,0-1.675,0.162-2.561,0.49l-0.267-1.039c0.245-0.163,0.87-0.311,1.875-0.439
			c0.317-0.039,0.699-0.059,1.145-0.059c0.444,0,0.881,0.053,1.309,0.159c0.429,0.106,0.784,0.279,1.069,0.52
			c0.576,0.477,0.864,1.248,0.864,2.315L768.265,93.976L768.265,93.976z M767.053,93.124c-1.125-0.284-2.164-0.426-3.117-0.426
			c-0.587,0-0.977,0.169-1.168,0.506c-0.131,0.235-0.195,0.584-0.195,1.046s0.025,0.796,0.076,1.003s0.134,0.378,0.249,0.513
			c0.226,0.255,0.599,0.383,1.118,0.383c0.813,0,1.618-0.21,2.417-0.628c0.245-0.125,0.466-0.265,0.663-0.419
			C767.066,94.583,767.053,93.923,767.053,93.124z M763.135,84.655l0.902-0.903l2.346,2.546l-0.6,0.628L763.135,84.655z"/>
		<path fill="#5C656E" d="M781.944,96.565c-0.996,0.399-2.095,0.6-3.298,0.6c-0.697,0-1.289-0.072-1.775-0.216
			c-0.773-0.222-1.288-0.679-1.542-1.372c-0.236-0.649-0.354-1.61-0.354-2.886v-0.368c0-1.524,0.317-2.595,0.952-3.21
			c0.573-0.548,1.527-0.823,2.864-0.823c1.304,0,2.193,0.322,2.67,0.967c0.231,0.313,0.383,0.692,0.458,1.137
			c0.074,0.445,0.111,0.87,0.111,1.274c0,0.629-0.015,1.118-0.043,1.464c-0.678,0.028-1.286,0.043-1.825,0.043h-1.161
			c-1.212,0-2.146-0.053-2.8-0.158c0,1.105,0.14,1.878,0.419,2.316c0.341,0.533,1.021,0.8,2.041,0.8c1.021,0,1.996-0.198,2.93-0.598
			L781.944,96.565z M780.812,92.172v-0.692c0-0.756-0.146-1.294-0.44-1.616c-0.327-0.36-0.893-0.541-1.695-0.541
			c-0.961,0-1.618,0.209-1.97,0.628c-0.336,0.398-0.505,1.14-0.505,2.222H780.812z"/>
		<path fill="#5C656E" d="M789.123,89.416c-0.938,0-1.893,0.276-2.864,0.83v6.773h-1.198v-8.585h1.055l0.115,0.888
			c0.523-0.428,1.176-0.733,1.955-0.916c0.316-0.077,0.689-0.116,1.118-0.116c0.428,0,0.806,0.05,1.133,0.148
			c0.327,0.1,0.587,0.256,0.779,0.473c0.352,0.389,0.526,1.1,0.526,2.128v5.98h-1.212v-5.756c0-0.693-0.067-1.139-0.202-1.339
			c-0.134-0.2-0.295-0.334-0.479-0.404C789.663,89.451,789.421,89.416,789.123,89.416z"/>
		<path fill="#5C656E" d="M800.429,89.026l0.115-0.592h1.039l0.007,8.428c0,1.236-0.242,2.135-0.729,2.698
			c-0.52,0.597-1.397,0.895-2.633,0.895c-0.962,0-1.816-0.13-2.562-0.39c-0.188-0.063-0.332-0.12-0.433-0.173l0.375-1.018
			c0.086,0.029,0.213,0.076,0.382,0.14c0.169,0.065,0.37,0.13,0.606,0.192c0.596,0.159,1.144,0.237,1.641,0.237
			c0.498,0,0.883-0.05,1.151-0.15c0.27-0.102,0.478-0.258,0.628-0.47c0.25-0.355,0.375-1.003,0.375-1.94v-0.686
			c-0.919,0.645-1.891,0.967-2.915,0.967c-1.197,0-1.997-0.426-2.396-1.277c-0.231-0.481-0.365-1.089-0.404-1.825
			c-0.014-0.337-0.021-0.709-0.021-1.115c0-0.405,0.003-0.816,0.011-1.229c0.006-0.414,0.037-0.797,0.09-1.147
			s0.136-0.667,0.249-0.948c0.112-0.281,0.275-0.521,0.487-0.718c0.437-0.409,1.111-0.614,2.023-0.614
			C798.429,88.29,799.399,88.536,800.429,89.026z M800.393,90.022c-0.866-0.433-1.702-0.649-2.51-0.649
			c-0.588,0-0.975,0.048-1.162,0.145c-0.188,0.096-0.331,0.221-0.43,0.375c-0.099,0.153-0.18,0.365-0.242,0.635
			c-0.11,0.505-0.166,1.337-0.166,2.495v0.159c0,1.068,0.133,1.816,0.396,2.244c0.266,0.438,0.749,0.656,1.45,0.656h0.109
			c0.663,0,1.342-0.183,2.033-0.548c0.198-0.102,0.372-0.204,0.521-0.311V90.022L800.393,90.022z"/>
		<path fill="#5C656E" d="M811.468,96.565c-0.995,0.399-2.095,0.6-3.298,0.6c-0.696,0-1.288-0.072-1.774-0.216
			c-0.773-0.222-1.288-0.679-1.544-1.372c-0.235-0.649-0.354-1.61-0.354-2.886v-0.368c0-1.524,0.318-2.595,0.952-3.21
			c0.573-0.548,1.528-0.823,2.864-0.823c1.304,0,2.193,0.322,2.67,0.967c0.23,0.313,0.383,0.692,0.458,1.137
			c0.074,0.445,0.111,0.87,0.111,1.274c0,0.629-0.014,1.118-0.043,1.464c-0.678,0.028-1.287,0.043-1.825,0.043h-1.162
			c-1.212,0-2.145-0.053-2.799-0.158c0,1.105,0.14,1.878,0.418,2.316c0.342,0.533,1.022,0.8,2.041,0.8
			c1.021,0,1.997-0.198,2.93-0.598L811.468,96.565z M810.335,92.172v-0.692c0-0.756-0.146-1.294-0.44-1.616
			c-0.327-0.36-0.893-0.541-1.695-0.541c-0.962,0-1.618,0.209-1.971,0.628c-0.336,0.398-0.505,1.14-0.505,2.222H810.335z"/>
		<path fill="#5C656E" d="M818.646,89.416c-0.938,0-1.893,0.276-2.865,0.83v6.773h-1.197v-8.585h1.054l0.116,0.888
			c0.523-0.428,1.176-0.733,1.955-0.916c0.316-0.077,0.69-0.116,1.118-0.116s0.805,0.05,1.132,0.148
			c0.327,0.1,0.588,0.256,0.78,0.473c0.351,0.389,0.526,1.1,0.526,2.128v5.98h-1.212v-5.756c0-0.693-0.066-1.139-0.202-1.339
			c-0.135-0.2-0.295-0.334-0.479-0.404C819.187,89.451,818.944,89.416,818.646,89.416z"/>
		<path fill="#5C656E" d="M828.48,89.409c-0.958,0-1.907,0.276-2.85,0.829v6.781h-1.198V84.755h1.169v4.567
			c0.495-0.423,1.14-0.729,1.934-0.916c0.317-0.077,0.692-0.116,1.125-0.116s0.813,0.05,1.141,0.148
			c0.327,0.1,0.587,0.256,0.778,0.473c0.347,0.389,0.52,1.1,0.52,2.128v5.98h-1.211v-5.764c0-0.693-0.067-1.139-0.202-1.339
			c-0.135-0.199-0.295-0.334-0.479-0.404C829.02,89.444,828.778,89.409,828.48,89.409z"/>
		<path fill="#5C656E" d="M840.839,93.976c0,0.957,0.046,1.953,0.138,2.987l-1.068,0.086l-0.18-1.003
			c-0.611,0.491-1.42,0.832-2.425,1.024c-0.327,0.063-0.618,0.094-0.873,0.094s-0.479-0.012-0.674-0.036
			c-0.195-0.023-0.383-0.07-0.563-0.14c-0.181-0.07-0.348-0.167-0.501-0.293c-0.154-0.125-0.288-0.291-0.403-0.498
			c-0.246-0.437-0.369-0.963-0.369-1.576s0.044-1.09,0.134-1.429c0.089-0.34,0.236-0.622,0.443-0.848
			c0.409-0.447,1.097-0.671,2.063-0.671s1.999,0.183,3.095,0.549v-0.938c0-1.043-0.431-1.661-1.291-1.854
			c-0.278-0.063-0.6-0.094-0.959-0.094c-0.823,0-1.678,0.162-2.563,0.49l-0.266-1.039c0.244-0.163,0.87-0.311,1.875-0.439
			c0.316-0.039,0.698-0.059,1.144-0.059s0.882,0.053,1.31,0.159c0.429,0.106,0.784,0.279,1.067,0.52
			c0.578,0.477,0.866,1.248,0.866,2.315V93.976L840.839,93.976z M839.627,93.124c-1.125-0.284-2.164-0.426-3.116-0.426
			c-0.587,0-0.977,0.169-1.169,0.506c-0.13,0.235-0.195,0.584-0.195,1.046s0.025,0.796,0.076,1.003s0.134,0.378,0.249,0.513
			c0.226,0.255,0.599,0.383,1.118,0.383c0.813,0,1.618-0.21,2.417-0.628c0.245-0.125,0.466-0.265,0.664-0.419
			C839.641,94.583,839.627,93.923,839.627,93.124z"/>
		<path fill="#5C656E" d="M847.188,89.481c-0.616,0-1.243,0.308-1.883,0.924v6.614h-1.197v-8.585h1.053l0.115,1.14
			c0.226-0.351,0.47-0.624,0.732-0.822c0.263-0.196,0.478-0.317,0.646-0.36c0.24-0.067,0.47-0.102,0.686-0.102
			s0.488,0.044,0.814,0.131l-0.107,1.146C847.802,89.511,847.515,89.481,847.188,89.481z"/>
		<path fill="#5C656E" d="M861.77,93.976c0,0.957,0.046,1.953,0.137,2.987l-1.067,0.086l-0.181-1.003
			c-0.61,0.491-1.418,0.832-2.424,1.024c-0.327,0.063-0.618,0.094-0.873,0.094s-0.48-0.012-0.675-0.036
			c-0.195-0.023-0.382-0.07-0.563-0.14c-0.181-0.07-0.348-0.167-0.501-0.293c-0.154-0.125-0.29-0.291-0.405-0.498
			c-0.244-0.437-0.368-0.963-0.368-1.576s0.045-1.09,0.134-1.429c0.09-0.34,0.237-0.622,0.444-0.848
			c0.409-0.447,1.098-0.671,2.063-0.671s1.998,0.183,3.095,0.549v-0.938c0-1.043-0.43-1.661-1.291-1.854
			c-0.279-0.063-0.6-0.094-0.96-0.094c-0.822,0-1.676,0.162-2.562,0.49l-0.266-1.039c0.244-0.163,0.869-0.311,1.875-0.439
			c0.317-0.039,0.698-0.059,1.144-0.059c0.444,0,0.881,0.053,1.309,0.159c0.429,0.106,0.785,0.279,1.068,0.52
			c0.577,0.477,0.865,1.248,0.865,2.315L861.77,93.976L861.77,93.976z M860.558,93.124c-1.125-0.284-2.164-0.426-3.117-0.426
			c-0.587,0-0.977,0.169-1.169,0.506c-0.13,0.235-0.194,0.584-0.194,1.046s0.025,0.796,0.076,1.003s0.134,0.378,0.248,0.513
			c0.228,0.255,0.6,0.383,1.118,0.383c0.813,0,1.619-0.21,2.418-0.628c0.245-0.125,0.466-0.265,0.664-0.419
			C860.571,94.583,860.558,93.923,860.558,93.124z"/>
	</g>
	<rect id="space-bar" x="588.266" y="74.416" fill="#6EAA77" width="0.411" height="35.313"/>
</g>
</svg>
