<?xml version="1.0" encoding="utf-8"?>
<!-- Generator: Adobe Illustrator 16.0.0, SVG Export Plug-In . SVG Version: 6.00 Build 0)  -->
<!DOCTYPE svg PUBLIC "-//W3C//DTD SVG 1.1//EN" "http://www.w3.org/Graphics/SVG/1.1/DTD/svg11.dtd">
<svg version="1.1" id="Camada_1" xmlns="http://www.w3.org/2000/svg" xmlns:xlink="http://www.w3.org/1999/xlink" x="0px" y="0px"
	 width="218.75px" height="157.25px" viewBox="0 0 218.75 157.25" enable-background="new 0 0 218.75 157.25" xml:space="preserve">
<g>
	<polygon fill="#3D3A38" points="86.806,104.414 60.97,121.6 35.145,104.363 60.97,89.051 	"/>
	<polygon fill="#646569" points="61.344,121.6 87.041,104.506 61.344,89.228 	"/>
	<g>
		<path fill="#FFFFFF" d="M25.343,137.315H11.541v10.759h15.432v5.488H4.857v-36.623h21.3v5.488H11.541v9.454h13.802V137.315z"/>
		<path fill="#FFFFFF" d="M32.349,153.563c0.108-1.793,0.218-4.728,0.218-7.444v-31.135h6.683v15.758h0.109
			c1.63-2.554,4.51-4.238,8.477-4.238c6.466,0,11.084,5.379,11.03,13.421c0,9.509-6.032,14.236-12.009,14.236
			c-3.423,0-6.466-1.304-8.368-4.564H38.38l-0.326,3.967H32.349z M39.249,142.641c0,0.544,0.055,1.087,0.163,1.576
			c0.707,2.662,3.043,4.673,5.923,4.673c4.184,0,6.738-3.369,6.738-8.694c0-4.673-2.229-8.477-6.684-8.477
			c-2.717,0-5.162,1.957-5.923,4.891c-0.108,0.489-0.218,1.087-0.218,1.739V142.641z"/>
		<path fill="#FFFFFF" d="M69.076,142.206c0.163,4.781,3.912,6.847,8.15,6.847c3.097,0,5.325-0.435,7.335-1.195l0.979,4.618
			c-2.282,0.924-5.434,1.63-9.237,1.63c-8.585,0-13.639-5.271-13.639-13.366c0-7.336,4.456-14.236,12.933-14.236
			c8.585,0,11.41,7.063,11.41,12.878c0,1.25-0.108,2.228-0.217,2.825H69.076z M80.704,137.533c0.055-2.445-1.032-6.466-5.488-6.466
			c-4.13,0-5.868,3.749-6.14,6.466H80.704z"/>
		<path fill="#FFFFFF" d="M92.383,135.632c0-3.587-0.055-6.141-0.218-8.531h5.814l0.217,5.054h0.218
			c1.304-3.75,4.401-5.651,7.227-5.651c0.652,0,1.032,0.055,1.575,0.163v6.303c-0.543-0.108-1.141-0.217-1.956-0.217
			c-3.205,0-5.379,2.064-5.977,5.053c-0.108,0.598-0.218,1.305-0.218,2.065v13.692h-6.683V135.632z"/>
		<path fill="#FFFFFF" d="M118.842,119.711c0,2.011-1.468,3.586-3.804,3.586c-2.228,0-3.695-1.575-3.695-3.586
			c0-2.064,1.521-3.641,3.749-3.641C117.374,116.07,118.787,117.646,118.842,119.711z M111.724,153.563v-26.462h6.737v26.462
			H111.724z"/>
		<path fill="#FFFFFF" d="M145.085,152.747c-1.413,0.652-4.185,1.358-7.499,1.358c-8.259,0-13.639-5.271-13.639-13.475
			c0-7.934,5.434-14.128,14.726-14.128c2.445,0,4.944,0.543,6.466,1.25l-1.195,4.999c-1.087-0.489-2.662-1.033-5.053-1.033
			c-5.108,0-8.15,3.75-8.097,8.586c0,5.434,3.532,8.53,8.097,8.53c2.336,0,3.966-0.488,5.271-1.032L145.085,152.747z"/>
		<path fill="#FFFFFF" d="M156.709,138.729h0.108c0.652-1.032,1.413-2.174,2.119-3.097l6.412-8.531h8.042l-9.781,10.813
			l11.193,15.649h-8.204l-7.607-11.683l-2.282,2.663v9.02h-6.684v-38.579h6.684V138.729z"/>
	</g>
	<polygon fill="#B0B0AF" points="86.806,44.812 60.97,60.395 35.302,44.748 61.03,29.74 	"/>
	<polygon fill="#FFFFFF" points="115.868,15.205 91.201,30.903 91.201,103.092 115.868,84.231 	"/>
	<polygon fill="#B0B0AF" points="65.586,15.439 91.201,30.903 115.865,15.205 90.347,0 	"/>
	<polygon fill="#FFFFFF" points="7.622,15.205 32.286,30.903 32.286,103.092 7.622,84.231 	"/>
	<polygon fill="#B0B0AF" points="57.902,15.439 32.289,30.903 7.622,15.205 33.141,0 	"/>
	<polygon fill="#D8D8D8" points="86.806,44.812 60.97,60.395 60.97,121.6 86.806,104.439 	"/>
	<polygon fill="#FFFFFF" points="86.806,104.414 60.97,121.6 35.145,104.363 60.97,89.051 	"/>
	<g>
		<g>
			<path fill="#D8D8D8" d="M181.504,153.275l-5.772-17.676h2.463l2.754,8.703c0.765,2.387,1.42,4.538,1.889,6.61h0.056
				c0.498-2.046,1.231-4.274,2.02-6.58l2.991-8.733h2.435l-6.318,17.676H181.504z"/>
			<path fill="#D8D8D8" d="M196.443,138.375h-0.052l-2.965,1.601l-0.446-1.76l3.728-1.99h1.965v17.05h-2.229V138.375z"/>
			<path fill="#D8D8D8" d="M216.212,144.563c0,5.799-2.15,8.999-5.93,8.999c-3.324,0-5.582-3.126-5.634-8.756
				c0-5.724,2.463-8.865,5.927-8.865C214.169,135.941,216.212,139.136,216.212,144.563z M206.958,144.829
				c0,4.431,1.359,6.951,3.457,6.951c2.359,0,3.489-2.754,3.489-7.111c0-4.191-1.072-6.95-3.463-6.95
				C208.422,137.719,206.958,140.188,206.958,144.829z"/>
		</g>
	</g>
</g>
</svg>
